<svg id="Layer_1" data-name="Layer 1" xmlns="http://www.w3.org/2000/svg" viewBox="0 0 632 182">
  <defs>
    <style>
      .cls-1 {
        fill: none;
        stroke: #000;
        stroke-miterlimit: 10;
        stroke-width: 18px;
      }
    </style>
  </defs>
  <title>4Artboard 2</title>
  <path d="M116,63V44h-1L96,76H92L71,44H70v86H48V5H72L94,40h1L116,5h25V130H116Z"/>
  <path d="M161,67a119,119,0,0,1,3-27,58,58,0,0,1,9-20A40,40,0,0,1,187,7q9-4,21-4t22,5a40,40,0,0,1,15,13,60,60,0,0,1,8,20,124,124,0,0,1,3,26q0,30-12,48t-35,17q-13,0-22-5a39,39,0,0,1-15-13,59,59,0,0,1-8-20A128,128,0,0,1,161,67Zm26,0a167,167,0,0,0,1,17,53,53,0,0,0,3,14,21,21,0,0,0,6,9q4,3,11,3a19,19,0,0,0,10-3,18,18,0,0,0,7-8,45,45,0,0,0,3-13,162,162,0,0,0,1-19q0-9-1-17a50,50,0,0,0-3-14,22,22,0,0,0-6-9q-4-3-11-3T191,35Q186,46,186,67Z"/>
  <path d="M277,5h35q17,0,27,5a42,42,0,0,1,17,13,51,51,0,0,1,9,20,118,118,0,0,1,2,25,116,116,0,0,1-2,24,56,56,0,0,1-9,21,46,46,0,0,1-18,15q-11,6-29,6H277Zm36,20H301v83h10q10,0,16-4a24,24,0,0,0,9-10,43,43,0,0,0,4-14,139,139,0,0,0,1-16,129,129,0,0,0-1-14,40,40,0,0,0-4-13,25,25,0,0,0-9-10Q323,25,312,25Z"/>
  <path d="M456,5h23V85a61,61,0,0,1-3,21,39,39,0,0,1-9,15,37,37,0,0,1-14,9,52,52,0,0,1-18,3q-23,0-34-11T390,88V5h24V83q0,14,5,21t16,6q11,0,15-7t5-20Z"/>
  <path d="M506,89h20v18h1l9,3h10q10,0,15-4a13,13,0,0,0,6-11,12,12,0,0,0-5-10l-11-7-15-6-15-7a40,40,0,0,1-11-11q-5-7-5-17a34,34,0,0,1,3-15,34,34,0,0,1,9-11,40,40,0,0,1,13-7l17-3,21,2,17,5V46H568V26h-1l-8-2h-9q-9,0-13,3a11,11,0,0,0-5,9,12,12,0,0,0,5,10l11,7,15,6,15,7a40,40,0,0,1,11,11q5,7,5,17a38,38,0,0,1-4,17,34,34,0,0,1-10,12,44,44,0,0,1-15,7l-19,2H532l-11-3-9-3-6-3Z"/>
  <line class="cls-1" x1="47" y1="167" x2="592" y2="167"/>
</svg>
